<?xml version="1.0" encoding="utf-8"?>
<!-- Generator: Adobe Illustrator 16.0.0, SVG Export Plug-In . SVG Version: 6.00 Build 0)  -->
<!DOCTYPE svg PUBLIC "-//W3C//DTD SVG 1.1//EN" "http://www.w3.org/Graphics/SVG/1.1/DTD/svg11.dtd">
<svg version="1.1" id="Ebene_1" xmlns="http://www.w3.org/2000/svg" xmlns:xlink="http://www.w3.org/1999/xlink" x="0px" y="0px"
	 width="500px" height="500px" viewBox="0 0 500 500" enable-background="new 0 0 500 500" xml:space="preserve">
<rect x="9.97" y="292.359" fill="#B8B8B9" width="480.338" height="205.514"/>
<g>
	<defs>
		<rect id="SVGID_1_" x="9.97" width="480.338" height="497.873"/>
	</defs>
	<clipPath id="SVGID_2_">
		<use xlink:href="#SVGID_1_"  overflow="visible"/>
	</clipPath>
	<path clip-path="url(#SVGID_2_)" fill="#00ACCC" d="M321.518,10.949c-18.314,0-40.787,10.635-71.386,10.635
		c-30.591,0-53.058-10.635-71.378-10.635s-71.385,13.729-71.385,76.484c0,59.499,26.772,92.443,26.772,110.497
		c0,10.43-0.869,101.396,12.264,155.31c9.492,38.789,22.16,65.604,37.448,65.604c15.296,0,14.509-50.396,21.544-86.928
		c6.98-36.518,24.343-83.015,44.736-83.015c20.387,0,37.771,46.497,44.75,83.015c7.035,36.531,6.242,86.928,21.53,86.928
		c15.316,0,27.963-26.814,37.462-65.604c13.126-53.914,12.264-144.88,12.264-155.31c0-18.053,26.759-50.998,26.759-110.497
		C392.896,24.678,339.831,10.949,321.518,10.949"/>
	<path clip-path="url(#SVGID_2_)" fill="none" stroke="#FFFFFF" stroke-width="21.8644" stroke-miterlimit="10" d="M321.518,10.949
		c-18.314,0-40.787,10.635-71.386,10.635c-30.591,0-53.058-10.635-71.378-10.635s-71.385,13.729-71.385,76.484
		c0,59.499,26.772,92.443,26.772,110.497c0,10.43-0.869,101.396,12.264,155.31c9.492,38.789,22.16,65.604,37.448,65.604
		c15.296,0,14.509-50.396,21.544-86.928c6.98-36.518,24.343-83.015,44.736-83.015c20.387,0,37.771,46.497,44.75,83.015
		c7.035,36.531,6.242,86.928,21.53,86.928c15.316,0,27.963-26.814,37.462-65.604c13.126-53.914,12.264-144.88,12.264-155.31
		c0-18.053,26.759-50.998,26.759-110.497C392.896,24.678,339.831,10.949,321.518,10.949z"/>
</g>
</svg>
